<svg width="101" height="100" viewBox="0 0 101 100" fill="none" xmlns="http://www.w3.org/2000/svg">
<g opacity="0.1">
<circle cx="50.5" cy="50" r="50" fill="#2F70FE"/>
<circle cx="50.5" cy="50" r="50" stroke="#2F70FE"/>
</g>
<g clip-path="url(#clip0_1_63)">
<path d="M31.8333 69.1667H70.1667" stroke="black" stroke-miterlimit="10" stroke-linecap="round" stroke-linejoin="round"/>
<path d="M38.5 60.8333H33.5V69.1667H38.5V60.8333Z" stroke="black" stroke-miterlimit="10" stroke-linecap="round" stroke-linejoin="round"/>
<path d="M48.5 52.5H43.5V69.1667H48.5V52.5Z" stroke="black" stroke-miterlimit="10" stroke-linecap="round" stroke-linejoin="round"/>
<path d="M58.5 55.8333H53.5V69.1667H58.5V55.8333Z" stroke="black" stroke-miterlimit="10" stroke-linecap="round" stroke-linejoin="round"/>
<path d="M68.5 44.1667H63.5V69.1667H68.5V44.1667Z" stroke="black" stroke-miterlimit="10" stroke-linecap="round" stroke-linejoin="round"/>
<path d="M36 50.8333C36.9205 50.8333 37.6667 50.0871 37.6667 49.1667C37.6667 48.2462 36.9205 47.5 36 47.5C35.0795 47.5 34.3333 48.2462 34.3333 49.1667C34.3333 50.0871 35.0795 50.8333 36 50.8333Z" stroke="black" stroke-miterlimit="10" stroke-linecap="round" stroke-linejoin="round"/>
<path d="M46 42.5C46.9205 42.5 47.6667 41.7538 47.6667 40.8334C47.6667 39.9129 46.9205 39.1667 46 39.1667C45.0795 39.1667 44.3333 39.9129 44.3333 40.8334C44.3333 41.7538 45.0795 42.5 46 42.5Z" stroke="black" stroke-miterlimit="10" stroke-linecap="round" stroke-linejoin="round"/>
<path d="M56 45.8333C56.9205 45.8333 57.6667 45.0871 57.6667 44.1667C57.6667 43.2462 56.9205 42.5 56 42.5C55.0795 42.5 54.3333 43.2462 54.3333 44.1667C54.3333 45.0871 55.0795 45.8333 56 45.8333Z" stroke="black" stroke-miterlimit="10" stroke-linecap="round" stroke-linejoin="round"/>
<path d="M66 34.1667C66.9205 34.1667 67.6667 33.4205 67.6667 32.5C67.6667 31.5795 66.9205 30.8333 66 30.8333C65.0795 30.8333 64.3333 31.5795 64.3333 32.5C64.3333 33.4205 65.0795 34.1667 66 34.1667Z" stroke="black" stroke-miterlimit="10" stroke-linecap="round" stroke-linejoin="round"/>
<path d="M37.3333 48.1667L44.6667 41.8334" stroke="black" stroke-miterlimit="10" stroke-linecap="round" stroke-linejoin="round"/>
<path d="M47.5 41.3332L54.5 43.6666" stroke="black" stroke-miterlimit="10" stroke-linejoin="round"/>
<path d="M64.8334 33.8332L57.1667 42.8332" stroke="black" stroke-miterlimit="10" stroke-linecap="round" stroke-linejoin="round"/>
</g>
<defs>
<clipPath id="clip0_1_63">
<rect width="40" height="40" fill="white" transform="translate(31 30)"/>
</clipPath>
</defs>
</svg>
