<svg width="100" height="100" viewBox="0 0 100 100" fill="none" xmlns="http://www.w3.org/2000/svg">
<g opacity="0.2">
<circle cx="50" cy="50" r="50" fill="#6DED02"/>
<circle cx="50" cy="50" r="50" stroke="#88BDDA"/>
</g>
<g clip-path="url(#clip0_1_51)">
<path d="M45 63.0001C54.9411 63.0001 63 54.9412 63 45.0001C63 35.0589 54.9411 27.0001 45 27.0001C35.0589 27.0001 27 35.0589 27 45.0001C27 54.9412 35.0589 63.0001 45 63.0001Z" stroke="black" stroke-miterlimit="10" stroke-linecap="round" stroke-linejoin="round"/>
<path d="M57.8 57.8L73 73" stroke="black" stroke-miterlimit="10" stroke-linecap="round" stroke-linejoin="round"/>
<path d="M42 47.2002V50.6002L34 54.0002" stroke="black" stroke-miterlimit="10" stroke-linecap="round" stroke-linejoin="round"/>
<path d="M48 47.2002V50.6002L56 54.0002" stroke="black" stroke-miterlimit="10" stroke-linecap="round" stroke-linejoin="round"/>
<path d="M51.4 40.4003C51.4 44.6003 48.6 48.0003 45 48.0003C41.4 48.0003 38.6 44.6003 38.6 40.4003C38.6 36.2003 41.4 32.8003 45 32.8003C48.6 32.6003 51.4 36.0003 51.4 40.4003Z" stroke="black" stroke-miterlimit="10" stroke-linecap="round" stroke-linejoin="round"/>
<path d="M51.4 39.4001C51.2 39.4001 51 39.4001 50.6 39.4001C48.6 39.8001 47.2 39.0001 46 37.0001C45.4 38.4001 43.2 39.4001 41.4 39.4001C40.6 39.4001 39.4 39.2001 38.8 38.8001" stroke="black" stroke-miterlimit="10" stroke-linecap="round" stroke-linejoin="round"/>
</g>
<defs>
<clipPath id="clip0_1_51">
<rect width="48" height="48" fill="white" transform="translate(26 26)"/>
</clipPath>
</defs>
</svg>
