<svg width="120" height="98" viewBox="0 0 120 98" fill="none" xmlns="http://www.w3.org/2000/svg">
<path d="M0 48.1866L41.796 24.6356L0.615779 0L0 48.1866ZM7.69724 12.7051L27.2482 24.4032L7.38935 35.6364L7.69724 12.7051Z" fill="#6DED02"/>
<path d="M19.704 86.7666L41.7182 97.9998L40.3327 73.2093L19.704 86.7666ZM21.4744 86.6891L39.486 74.8361L40.7175 96.5278L21.4744 86.6891Z" fill="#6DED02"/>
<path d="M109.532 49.3486L120 36.5659L103.759 33.777L109.532 49.3486ZM109.686 48.1865L104.683 34.5517L118.846 36.9533L109.686 48.1865Z" fill="#6DED02"/>
<path d="M62.6554 45.4752L61.8856 56.0111L61.0389 66.4696L70.5065 61.8989L79.8972 57.4056L71.2763 51.4404L62.6554 45.4752Z" fill="#6DED02"/>
<path d="M103.681 88.8579L107.145 92.7314L110.608 96.605L112.225 91.7243L113.841 86.7662L108.761 87.7734L103.681 88.8579Z" fill="#6DED02"/>
</svg>
